<?xml version="1.0" encoding="UTF-8"?>
<svg viewBox="0 0 2707.5 2707.5" xmlns="http://www.w3.org/2000/svg">
 <g stroke="#000">
  <g stroke-linecap="round" stroke-linejoin="round">
   <g fill="#b794f4" stroke-width="35">
    <path d="m1847.9 1722.4s-45.135 54.843-51.939 90.563c-11.907 86.748 44.059 344.45 17.009 474.56-9.1665 44.092-21.674 104.23-81.645 137.78-55.426 31.001-116.59 25.113-175.76 23.814-55.031-1.209-99.463-14.415-160.4-32.112-81.645-62.935-107.84-70.899-145.2-129.48-11.412-17.893-5.173-48.602 17.732-59.842 40.323-19.788 66.456-28.655 80.734-63.366 16.212-39.41-27.397-72.843-9.3124-105.53 14.009-25.318 46.892-24.602 66.526-68.433 18.787-41.942-30.314-64.5-19.088-109.36 7.0104-28.013 36.8-37.664 46.904-61.732 28.852-68.725 22.319-224.03 22.319-224.03l392.13 127.16z"/>
    <path d="m1359 1514.7s0.46851 70.878-44.502 165.98c-28.572 60.422-45.704 63.466-67.354 93.535 5.9667 15.347 4.9856 13.998 16.467 27.081 13.079 14.904 13.74 12.429 24.852 20.032 44.502-15.636 79.172-17.605 140.3-78.106 56.87-56.29 80.584-174.4 80.584-174.4l-150.34-54.124z"/>
   </g>
   <path d="m1338.6 1737.3c34.929-31.315 33.642-33.467 47.453-52.63 13.223-19.62 20.276-33.721 24.756-57.808 2.1038-11.312 7.3682-21.634-0.025024-37.426l-5.217-12.134 39.456 20.058s-12.782 44.471-15.892 54.788c-2.6361 8.746-11.754 27.721-15.16 33.084-18.906 29.765-37.75 52.809-67.16 72.166-31.167 20.513-56.77 28.849-60.244 25.218 17.611-17.974 37.532-32.312 52.034-45.314h1.22e-4z" stroke-width="11.791"/>
   <path d="m2633.2 1410.1a198.04 200.19 0 1 1 -396.08 0 198.04 200.19 0 1 1 396.08 0z" fill="#b794f4" stroke-width="33.06"/>
  </g>
  <path d="m2353.9 1267.7c-5.0813 164.18-88.657 317.9-188.52 383.67-62.127 40.919-215.45 103.77-366.82 63.553-349.39-92.821-559.32-179.17-798.62-449.63-137.86-155.81-93.573-407.13 167.9-513.51 111.61-45.411 375.36-30.984 485.02-28.797 450.41 8.9834 709.75 262.9 701.03 544.72z" stroke-width="30"/>
  <g stroke-linecap="round" stroke-linejoin="round">
   <g fill="#b794f4">
    <path d="m1527.7 1049.9a347.96 563.83 0 1 1 -695.92 -196.06 347.96 563.83 0 1 1 695.92 196.06z" stroke-width="19"/>
    <path d="m1561 1099.8c-8.36 22.588 146.74 86.598 271.82 170.79 134.71 79.381 185.22 151.55 209.28 156.36 21.649-15.636-67.354-144.33-56.529-158.76 24.055-3.6082 186.43 98.625 208.08 96.22-2.4055-33.677-139.52-125.09-139.52-125.09s-187.63-98.626-203.26-96.22c-7.2164 12.028 58.935 80.584 56.529 101.03-16.838 0-186.43-120.28-346.39-144.33z" stroke-width="5"/>
   </g>
   <path d="m1061.2 656.37c125.87-20.411 275.35-30.269 321.48 5.1028 31.129 23.869 18.5 261.64-51.216 410.61-72.626 155.19-150.33 259.12-195.42 276.57-49.782 19.275-98.655-73.14-183.7-188.8l108.86-503.48z" stroke-width="30"/>
   <path d="m1161.1 945.99a244.71 402.27 0 1 1 -489.41 -139.88 244.71 402.27 0 1 1 489.41 139.88z" fill="#b794f4" stroke-width="19"/>
   <path d="m763.62 678.48c112.26-40.823 162.28-49.487 212.62-20.411 44.382 25.636 93.634 137.85 30.721 269.81-73.736 154.66-137.4 178.52-175.3 155.43-47.233-28.779-100.36-88.449-147.98-190.51 43.17-159.22 35.255-137.36 79.944-214.32z" stroke-width="30"/>
   <path d="m782.37 829.57a160.69 272.2 0 1 1 -321.38 -94.654 160.69 272.2 0 1 1 321.38 94.654z" fill="#b794f4" stroke-width="19"/>
   <path d="m222.37 730.52l29.863-72.499c44.502-1.2028 180.31 43.254 254.53 54.131 65.625 9.6174 55.988-1.4663 88.457-2.0789 31.289-0.59039 70.026 17.22 72.165 68.557 2.8575 68.582-72.668 158.86-105.34 134.71-32.676-24.147-82.662-53.907-131.26-78.573-110.42-56.047-156.7-80.19-208.42-104.24z" stroke-width="26"/>
   <path d="m376.5 685.92a157.6 160.97 0 1 1 -315.2 0 157.6 160.97 0 1 1 315.2 0z" fill="#b794f4" stroke-width="19"/>
   <path d="m338.36 719.45c-46.044 96.586-124.6 86.602-124.6 86.602s49.549-13.497 86.744-87.805c21.021-93.808-11.097-134.93-11.097-134.93s68.763 56.192 48.951 136.14z" stroke-width="15"/>
  </g>
  <g fill="#b794f4" stroke-linecap="round" stroke-linejoin="round">
   <g stroke-width="30">
    <path d="m2080.2 708.72l52.41 20.121s-30.53 46.64-42.43 158.9c-30.62 13.608-64.32 1.992-84.73-38.83 73.14-73.141 74.75-140.19 74.75-140.19z"/>
    <path d="m1775.7 589.82l52.41 16.718s-54.34 67.052-52.64 174.21c-30.61 13.608-64.32 1.992-84.73-38.83 73.14-73.141 84.96-152.1 84.96-152.1z"/>
   </g>
   <path d="m2311.6 745.52c0 46.866-38.1 84.858-85.1 84.858s-85.1-37.992-85.1-84.858 38.1-84.859 85.1-84.859 85.1 37.993 85.1 84.859z" stroke-width="77.463"/>
   <path d="m1773.9 567.28c151.47 61.354 221.98 91.115 340.64 124.15 64.25 17.889 99.78 13.114 113.37 36.452 10.72 18.419-8.48 33.797-33.86 39.274-20.57 4.44-49.69-15.196-85.77-28.557-97.42-36.083-229.71-85.434-355.08-120.54-33.13-9.28-39.8-4.549-48.41-18.411-8.28-13.321 1.38-44.085 12.21-46.491 33.92-7.537 24.69 1.081 56.9 14.125z" stroke-width="30"/>
   <path d="m1747.5 567.51c0 46.866-38.1 84.858-85.1 84.858s-85.1-37.992-85.1-84.858 38.1-84.859 85.1-84.859 85.1 37.993 85.1 84.859z" stroke-width="77.463"/>
  </g>
  <path d="m1372.2 2392.7s-0.14185-33.056 10.447-53.73c9.0934-17.754 35.843-29.802 41.271-40.084 17.442-33.042 30.443-47.706 38.488-84.192 7.7644-35.214-25.365-74.413-16.838-109.45 9.9181-40.756 61.045-44.488 74.57-84.192 20.486-60.136-27.419-70.877-8.4192-132.3 19.976-64.582 36.172-55.446 57.732-84.192 10.825-14.433 12.028-125.09 12.028-125.09s25.455 80.475 15.636 116.67c-12.372 45.598-55.403 59.241-64.948 95.017-11.391 42.696 28.036 90.258 12.028 145.53-10.696 36.93-64.333 39.916-74.57 76.976-10.689 38.695 28.104 54.227 10.825 111.86-13.643 45.5-19.423 62.008-48.11 96.22-36.76 43.839-27.663 101.03-27.663 101.03l-32.474-30.069z" stroke-linecap="round" stroke-linejoin="round" stroke-width="15"/>
 </g>
</svg>
